<?xml version="1.0" encoding="UTF-8" standalone="no"?>
<svg
   xmlns:dc="http://purl.org/dc/elements/1.1/"
   xmlns:cc="http://creativecommons.org/ns#"
   xmlns:rdf="http://www.w3.org/1999/02/22-rdf-syntax-ns#"
   xmlns:svg="http://www.w3.org/2000/svg"
   xmlns="http://www.w3.org/2000/svg"
   xmlns:sodipodi="http://sodipodi.sourceforge.net/DTD/sodipodi-0.dtd"
   xmlns:inkscape="http://www.inkscape.org/namespaces/inkscape"
   viewBox="0 0 2129.332 630.37042"
   height="630.37042"
   width="2129.332"
   xml:space="preserve"
   id="svg2"
   version="1.1"
   sodipodi:docname="LOGO.svg"
   inkscape:version="0.92.2 5c3e80d, 2017-08-06"><sodipodi:namedview
     pagecolor="#ffffff"
     bordercolor="#666666"
     borderopacity="1"
     objecttolerance="10"
     gridtolerance="10"
     guidetolerance="10"
     inkscape:pageopacity="0"
     inkscape:pageshadow="2"
     inkscape:window-width="640"
     inkscape:window-height="480"
     id="namedview3779"
     showgrid="false"
     fit-margin-top="0"
     fit-margin-left="0"
     fit-margin-right="0"
     fit-margin-bottom="0"
     inkscape:zoom="0.38819444"
     inkscape:cx="652.50169"
     inkscape:cy="315.18097"
     inkscape:window-x="0"
     inkscape:window-y="0"
     inkscape:window-maximized="0"
     inkscape:current-layer="svg2" /><metadata
     id="metadata8"><rdf:RDF><cc:Work
         rdf:about=""><dc:format>image/svg+xml</dc:format><dc:type
           rdf:resource="http://purl.org/dc/dcmitype/StillImage" /><dc:title></dc:title></cc:Work></rdf:RDF></metadata><defs
     id="defs6"><clipPath
       id="clipPath18"
       clipPathUnits="userSpaceOnUse"><path
         id="path16"
         d="M 0,1080 H 1920 V 0 H 0 Z"
         inkscape:connector-curvature="0" /></clipPath></defs><g
     transform="matrix(1.3333333,0,0,-1.3333333,-215.33373,1035.1894)"
     id="g10"><g
       id="g12"><g
         clip-path="url(#clipPath18)"
         id="g14"><g
           transform="translate(816.3027,590.8384)"
           id="g20"><path
             id="path22"
             style="fill:#000000;fill-opacity:1;fill-rule:nonzero;stroke:none"
             d="m 0,0 c 20.663,21.193 46.627,31.792 76.829,31.792 29.136,0 52.98,-7.948 70.996,-24.374 17.487,-16.426 26.49,-36.559 25.96,-60.933 H 69.937 c -6.888,0 -21.724,-0.53 -25.43,-0.53 -0.53,-22.253 4.767,-41.856 16.956,-58.282 11.655,-16.426 27.551,-24.899 47.683,-24.899 28.081,0 53.515,19.072 65.7,46.622 l 2.121,-0.53 c -7.948,-21.723 -18.017,-39.735 -34.968,-59.872 -16.957,-20.133 -43.447,-32.848 -73.648,-32.848 -29.141,0 -52.985,9.539 -71.532,29.141 -18.542,19.602 -28.081,45.037 -28.081,76.294 0,31.262 10.599,57.226 31.262,78.419 m 50.864,4.237 c -5.297,-15.896 -7.418,-33.908 -6.887,-54.571 h 52.984 c 0,52.45 -7.947,78.415 -23.313,78.415 -10.069,0 -18.017,-7.948 -22.784,-23.844"
             inkscape:connector-curvature="0" /></g><g
           transform="translate(1158.9141,615.7397)"
           id="g24"><path
             id="path26"
             style="fill:#000000;fill-opacity:1;fill-rule:nonzero;stroke:none"
             d="m 0,0 c -3.712,5.828 -5.827,13.245 -5.827,22.253 0,22.784 17.481,38.15 41.325,38.15 19.077,0 35.498,-13.245 35.498,-30.732 0,-25.96 -29.671,-38.149 -49.273,-20.663 -4.772,4.767 -9.008,7.418 -12.185,7.418 -5.302,0 -7.948,-2.651 -7.948,-7.418 0,-9.538 12.184,-13.775 20.663,-19.602 18.542,-11.129 27.551,-26.495 27.551,-45.567 0,-21.193 -9.534,-37.619 -29.142,-49.274 -19.602,-12.189 -42.916,-18.546 -69.94,-20.137 -34.969,-1.591 -52.451,-6.887 -52.451,-14.836 0,-7.418 6.888,-11.124 20.133,-11.124 10.069,0 22.783,0.531 38.679,1.056 15.366,0.53 25.96,1.06 31.792,1.06 52.98,0 80.535,-28.081 80.535,-68.88 0,-30.727 -13.249,-54.041 -40.269,-69.937 -27.026,-15.895 -59.872,-23.839 -98.552,-23.839 -45.568,-1.065 -101.729,13.771 -102.259,46.622 0,14.836 9.539,25.435 28.611,31.792 6.888,2.647 15.366,4.238 24.905,5.827 -26.491,5.828 -39.741,20.133 -39.741,43.977 0,24.374 13.776,37.089 35.499,46.628 15.896,6.357 25.434,8.477 44.506,12.715 -47.152,4.236 -77.353,25.433 -77.353,63.578 0,22.784 10.598,39.74 31.261,51.925 20.663,11.659 44.506,17.487 72.057,17.487 C -34.969,8.479 -17.486,5.828 0,0 m -127.693,-262.798 c 0,-33.383 23.843,-44.507 66.23,-44.507 55.106,0 82.655,15.365 82.655,45.562 0,22.258 -16.425,33.382 -49.803,33.382 -6.888,0 -15.366,0 -25.964,-0.53 h -21.724 c -35.498,0 -51.394,-9.008 -51.394,-33.907 m 76.298,140.407 c 15.896,0 23.844,21.724 23.844,65.17 0,33.377 -9.538,61.988 -24.904,61.988 -16.956,0 -25.435,-21.193 -25.435,-64.109 0,-41.856 9.009,-63.049 26.495,-63.049"
             inkscape:connector-curvature="0" /></g><g
           transform="translate(1671.6064,624.2183)"
           id="g28"><path
             id="path30"
             style="fill:#000000;fill-opacity:1;fill-rule:nonzero;stroke:none"
             d="m 0,0 c 36.559,0 57.222,-21.193 57.222,-59.342 v -95.902 c 0,-14.835 0,-25.964 10.598,-25.964 6.888,0 12.715,7.948 17.483,23.848 h 1.59 c -6.888,-34.442 -30.202,-60.937 -64.109,-60.937 -25.965,0 -46.097,13.78 -46.097,46.097 -5.828,-27.02 -29.671,-46.097 -57.752,-46.097 -29.671,0 -56.162,18.547 -56.162,45.567 -2.65,28.085 20.133,42.916 39.206,50.339 9.539,4.236 39.209,12.184 48.217,15.891 10.07,3.711 18.542,8.478 24.374,14.305 v 44.512 c 0,19.602 -10.068,32.847 -27.554,32.847 -9.009,0 -19.073,-5.297 -19.073,-13.245 0,-8.478 19.073,-13.775 19.073,-32.322 0,-11.654 -5.297,-22.253 -15.897,-31.262 -11.124,-9.534 -22.783,-14.305 -34.968,-14.305 -16.956,0 -27.55,10.069 -27.55,27.025 C -132.989,-37.089 -48.743,2.121 0,0 m -34.438,-102.789 c -19.077,-11.125 -25.434,-20.663 -25.434,-44.506 0,-25.435 6.888,-38.15 21.193,-38.15 6.358,0 10.069,3.181 11.658,12.185 1.591,9.009 1.591,14.305 1.591,29.671 v 46.628 z"
             inkscape:connector-curvature="0" /></g><g
           transform="translate(768.5303,460.4961)"
           id="g32"><path
             id="path34"
             style="fill:#000000;fill-opacity:1;fill-rule:nonzero;stroke:none"
             d="m 0,0 v 315.886 l -112.327,-39.21 v -1.59 c 20.663,-4.767 31.792,-14.305 31.792,-41.326 V 0 c 0,-24.899 -10.445,-44.507 -28.611,-44.507 -19.472,0 -28.611,16.427 -28.611,44.507 v 289.293 l -112.322,-39.204 v -1.591 c 20.662,-4.771 31.787,-14.31 31.787,-41.33 V 0 c 0,-24.541 -10.375,-44.27 -27.806,-44.27 -15.003,0 -26.853,9.632 -34.661,20.566 -7.999,11.194 -17.594,33.052 -27.723,64.504 l -90.097,275.096 h -1.6 c -21.323,-30.393 -48.515,-50.116 -81.568,-58.65 l 9.065,-28.253 -44.781,-145.542 C -542.521,2.953 -569.179,-33.833 -607.03,-44.497 v -1.6 h 146.607 v 1.6 c -37.317,6.93 -55.975,36.786 -55.975,89.566 0,13.325 1.599,25.054 4.264,35.187 h 87.963 l 9.599,-29.326 c 9.594,-28.784 14.393,-48.511 14.393,-58.641 0,-20.793 -18.658,-34.121 -40.516,-36.786 v -1.6 h 193.792 1.861 273.653 v 1.59 C 9.539,-42.916 0,-28.08 0,0 m -510.004,86.651 39.986,133.813 43.717,-133.813 z"
             inkscape:connector-curvature="0" /></g><g
           transform="translate(1432.5859,651.2544)"
           id="g36"><path
             id="path38"
             style="fill:#000000;fill-opacity:1;fill-rule:nonzero;stroke:none"
             d="m 0,0 c -14.063,1.507 -26.248,-6.162 -46.376,-26.448 -24.16,-24.346 -41.776,-56.748 -41.358,-166.656 0.093,-23.468 10.711,-37.991 32.387,-41.605 l 0.004,-1.586 -145.267,-0.558 -0.004,1.586 c 22.69,5.896 32.684,17.03 32.577,44.497 l -0.325,85.577 c -0.108,27.466 -9.12,35.884 -29.737,39.503 l -0.005,1.585 108.147,37.392 0.204,-52.446 C -81.967,-43.735 -16.436,70.136 39.131,70.35 67.128,70.457 83.582,49.92 83.656,30.373 83.744,7.129 67.453,-14.589 42.623,-14.687 26.327,-14.748 18.193,-1.954 0,0"
             inkscape:connector-curvature="0" /></g><g
           transform="translate(1507.1572,460.7852)"
           id="g40"><path
             id="path42"
             style="fill:#000000;fill-opacity:1;fill-rule:nonzero;stroke:none"
             d="m 0,0 c 0.093,-24.825 10.72,-39.576 31.336,-44.251 l 0.009,-1.585 -142.626,-0.549 -0.009,1.585 c 19.002,4.828 28.452,19.654 28.354,44.48 l -0.32,84.52 c -0.107,27.472 -9.65,35.885 -33.438,40.55 l -0.005,1.585 116.061,40.061 z"
             inkscape:connector-curvature="0" /></g></g></g></g></svg>